<svg width="1448" height="375" viewBox="0 0 1448 375" fill="none" xmlns="http://www.w3.org/2000/svg">
<path d="M474.752 234.375L569.703 139.33H498.49C491.813 139.33 486.188 137.04 481.614 132.461C477.039 127.758 474.752 122.127 474.752 115.568H617.178V127.449L510.359 234.375H474.752Z" fill="black"/>
<path d="M640.916 234.375C640.916 227.816 643.203 222.247 647.778 217.668C652.476 212.965 658.101 210.614 664.654 210.614H759.605V186.852H640.916V115.568H783.343C783.343 122.251 780.994 127.882 776.296 132.461C771.598 137.04 766.034 139.33 759.605 139.33H664.654V163.091H783.343V234.375H640.916Z" fill="black"/>
<path d="M830.818 234.375C824.142 234.375 818.517 232.086 813.942 227.507C809.368 222.804 807.081 217.173 807.081 210.614H949.507C949.507 217.297 947.158 222.928 942.46 227.507C937.762 232.086 932.198 234.375 925.769 234.375H830.818ZM830.818 186.852C824.142 186.852 818.517 184.563 813.942 179.984C809.368 175.281 807.081 169.65 807.081 163.091H949.507C949.507 169.774 947.158 175.405 942.46 179.984C937.762 184.563 932.198 186.852 925.769 186.852H830.818ZM830.818 139.33C824.142 139.33 818.517 137.04 813.942 132.461C809.368 127.758 807.081 122.127 807.081 115.568H949.507C949.507 122.251 947.158 127.882 942.46 132.461C937.762 137.04 932.198 139.33 925.769 139.33H830.818Z" fill="black"/>
<path d="M996.983 234.375C990.306 234.375 984.681 232.086 980.107 227.507C975.532 222.804 973.245 217.173 973.245 210.614H1115.67C1115.67 217.297 1113.32 222.928 1108.62 227.507C1103.93 232.086 1098.36 234.375 1091.93 234.375H996.983ZM996.983 186.852C990.306 186.852 984.681 184.563 980.107 179.984C975.532 175.281 973.245 169.65 973.245 163.091H1115.67C1115.67 169.774 1113.32 175.405 1108.62 179.984C1103.93 184.563 1098.36 186.852 1091.93 186.852H996.983ZM996.983 139.33C990.306 139.33 984.681 137.04 980.107 132.461C975.532 127.758 973.245 122.127 973.245 115.568H1115.67C1115.67 122.251 1113.32 127.882 1108.62 132.461C1103.93 137.04 1098.36 139.33 1091.93 139.33H996.983Z" fill="black"/>
<path d="M1139.41 234.375V163.091H1246.23C1249.44 163.091 1252.23 161.977 1254.57 159.75C1256.92 157.398 1258.1 154.552 1258.1 151.21V139.33H1163.15C1156.47 139.33 1150.85 137.04 1146.27 132.461C1141.7 127.758 1139.41 122.127 1139.41 115.568H1281.84V163.091C1281.84 169.774 1279.49 175.405 1274.79 179.984C1270.09 184.563 1264.53 186.852 1258.1 186.852H1234.36L1281.84 234.375H1246.23L1198.75 186.852H1163.15V234.375H1139.41Z" fill="black"/>
<path d="M1305.57 234.375C1305.57 227.816 1307.86 222.247 1312.44 217.668C1317.13 212.965 1322.76 210.614 1329.31 210.614H1424.26V186.852H1305.57V115.568H1448C1448 122.251 1445.65 127.882 1440.95 132.461C1436.25 137.04 1430.69 139.33 1424.26 139.33H1329.31V163.091H1448V234.375H1305.57Z" fill="black"/>
<path d="M140.538 161.294H26.1182C11.6935 161.294 0 173.031 0 187.51C0 201.988 11.6935 213.725 26.1182 213.725H140.538C154.963 213.725 166.656 201.988 166.656 187.51C166.656 173.031 154.963 161.294 140.538 161.294Z" fill="url(#paint0_linear_1751_21486)"/>
<path d="M215.077 134.754V26.3737C215.077 11.8079 203.313 0 188.801 0C174.29 0 162.522 11.8079 162.522 26.3737V134.754C162.522 149.319 174.286 161.127 188.798 161.127C203.31 161.127 215.077 149.319 215.077 134.754Z" fill="url(#paint1_linear_1751_21486)"/>
<path d="M215.079 348.626V240.246C215.079 225.681 203.315 213.873 188.803 213.873C174.292 213.873 162.524 225.681 162.524 240.246V348.626C162.524 363.192 174.288 375 188.8 375C203.311 375 215.079 363.192 215.079 348.626Z" fill="#FF5CC0"/>
<path d="M180.605 141.997L89.0444 50.0949C78.7831 39.7953 62.1464 39.7953 51.8851 50.0949C41.6238 60.3945 41.6214 77.0958 51.8827 87.3954L143.443 179.298C153.704 189.597 170.341 189.597 180.602 179.298C190.864 168.998 190.866 152.297 180.605 141.997Z" fill="#A15CFF"/>
<path d="M319.941 281.738L233.881 195.356C223.619 185.056 206.983 185.056 196.721 195.356C186.46 205.656 186.458 222.357 196.719 232.656L282.78 319.039C293.041 329.338 309.678 329.338 319.939 319.039C330.2 308.739 330.203 292.038 319.941 281.738Z" fill="url(#paint2_linear_1751_21486)"/>
<path d="M233.828 179.668L323.801 89.3594C334.062 79.0598 334.062 62.3609 323.801 52.0613C313.54 41.7617 296.9 41.7593 286.639 52.0588L196.666 142.368C186.405 152.668 186.405 169.366 196.666 179.666C206.927 189.966 223.567 189.968 233.828 179.668Z" fill="#755CFF"/>
<path d="M94.9056 319.038L181.682 231.937C191.944 221.638 191.944 204.939 181.682 194.639C171.421 184.34 154.782 184.337 144.521 194.637L57.7438 281.738C47.4826 292.037 47.4826 308.736 57.7438 319.036C68.0051 329.336 84.6443 329.338 94.9056 319.038Z" fill="url(#paint3_linear_1751_21486)"/>
<path d="M261.005 183.761C295.253 190.339 314.64 209.475 320.241 242.464C324.975 208.618 345.331 189.162 379.694 183.981C345.15 178.857 325.954 159.044 320.457 125.277C315.444 158.77 295.587 174.68 261.005 183.761Z" fill="url(#paint4_linear_1751_21486)"/>
<defs>
<linearGradient id="paint0_linear_1751_21486" x1="0" y1="187.5" x2="1737.6" y2="187.5" gradientUnits="userSpaceOnUse">
<stop stop-color="#C75CFF"/>
<stop offset="1" stop-color="#642E80"/>
</linearGradient>
<linearGradient id="paint1_linear_1751_21486" x1="563.272" y1="187.5" x2="1250.46" y2="-367.219" gradientUnits="userSpaceOnUse">
<stop stop-color="#A15CFF"/>
<stop offset="1" stop-color="#6400EB"/>
</linearGradient>
<linearGradient id="paint2_linear_1751_21486" x1="1342.3" y1="101.25" x2="-28.1549" y2="692.935" gradientUnits="userSpaceOnUse">
<stop stop-color="#FA5DBD"/>
<stop offset="1" stop-color="#C32D88"/>
</linearGradient>
<linearGradient id="paint3_linear_1751_21486" x1="0" y1="187.5" x2="1737.6" y2="187.5" gradientUnits="userSpaceOnUse">
<stop stop-color="#C75CFF"/>
<stop offset="1" stop-color="#642E80"/>
</linearGradient>
<linearGradient id="paint4_linear_1751_21486" x1="293.747" y1="192.376" x2="332.732" y2="171.53" gradientUnits="userSpaceOnUse">
<stop stop-color="#FF9D00"/>
<stop offset="1" stop-color="#FFC260"/>
</linearGradient>
</defs>
</svg>
